#define x_width 8
#define x_height 8
static char x_bits[] = {
0x00, 
0x00, 
0x48, 
0x78, 
0x7f, 
0x78, 
0x48, 
0x00, 
}; 
