#define x_width 12
#define x_height 12
static char x_bits[] = {
0x9f, 0xff, 
0x9f, 0xff, 
0x9f, 0xff, 
0x9f, 0xff, 
0x9f, 0xff, 
0x00, 0xf0, 
0x00, 0xf0, 
0x9f, 0xff, 
0x9f, 0xff, 
0x9f, 0xff, 
0x9f, 0xff, 
0x9f, 0xff, 
}; 
